<?xml version="1.0" encoding="UTF-8" standalone="no"?>
<!-- Created with Inkscape (http://www.inkscape.org/) -->

<svg
   xmlns:dc="http://purl.org/dc/elements/1.1/"
   xmlns:cc="http://creativecommons.org/ns#"
   xmlns:rdf="http://www.w3.org/1999/02/22-rdf-syntax-ns#"
   xmlns:svg="http://www.w3.org/2000/svg"
   xmlns="http://www.w3.org/2000/svg"
   xmlns:xlink="http://www.w3.org/1999/xlink"
   xmlns:sodipodi="http://sodipodi.sourceforge.net/DTD/sodipodi-0.dtd"
   xmlns:inkscape="http://www.inkscape.org/namespaces/inkscape"
   width="210mm"
   height="297mm"
   id="svg3137"
   version="1.1"
   inkscape:version="0.48.2 r9819"
   sodipodi:docname="Nouveau document 4">
  <defs
     id="defs3139">
    <clipPath
       id="clipPath3668">
      <path
         inkscape:connector-curvature="0"
         d="m 48,33.268293 -24,24.083623 5.920127,0 0,18.648084 36.200724,0 0,-18.731707 5.879149,0 -10.536585,-10.620209 0,-8.111499 -5.351916,0 0,2.843206 L 48,33.268293 z"
         id="path3670"
         style="opacity:0.9;fill:url(#linearGradient3672);fill-opacity:1;stroke:none;display:inline" />
    </clipPath>
    <filter
       color-interpolation-filters="sRGB"
       id="filter3674">
      <feGaussianBlur
         id="feGaussianBlur3676"
         stdDeviation="0.45365853" />
    </filter>
    <linearGradient
       gradientTransform="translate(240.57143,462.94232)"
       x1="47"
       y1="76"
       x2="47"
       y2="33.086185"
       id="linearGradient3664"
       xlink:href="#linearGradient3658"
       gradientUnits="userSpaceOnUse" />
    <linearGradient
       id="linearGradient3658">
      <stop
         id="stop3660"
         style="stop-color:#b38229;stop-opacity:1"
         offset="0" />
      <stop
         id="stop3662"
         style="stop-color:#ab791d;stop-opacity:0.47058824"
         offset="1" />
    </linearGradient>
    <clipPath
       id="clipPath3690">
      <path
         inkscape:connector-curvature="0"
         d="m 77.375,23.75 c -3.324,0 -6,2.676 -6,6 l 0,49.25 c 0,3.324 2.676,6 6,6 l 59.875,0 c 3.324,0 6,-2.676 6,-6 l 0,-49.25 c 0,-3.324 -2.676,-6 -6,-6 l -59.875,0 z m 30.625,9.53125 8.125,8.09375 0,-2.84375 5.34375,0 0,8.125 10.53125,10.625 -5.875,0 0,18.71875 -36.21875,0 0,-18.65625 -5.90625,0 24,-24.0625 z"
         id="path3692"
         style="opacity:0.35;fill:#ff00ff;stroke:none" />
    </clipPath>
    <filter
       color-interpolation-filters="sRGB"
       id="filter3694">
      <feGaussianBlur
         id="feGaussianBlur3696"
         stdDeviation="0.6804878" />
    </filter>
    <clipPath
       id="clipPath3668-3">
      <path
         inkscape:connector-curvature="0"
         d="m 48,33.268293 -24,24.083623 5.920127,0 0,18.648084 36.200724,0 0,-18.731707 5.879149,0 -10.536585,-10.620209 0,-8.111499 -5.351916,0 0,2.843206 L 48,33.268293 z"
         id="path3670-7"
         style="opacity:0.9;fill:url(#linearGradient3672);fill-opacity:1;stroke:none;display:inline" />
    </clipPath>
    <filter
       color-interpolation-filters="sRGB"
       id="filter3674-5">
      <feGaussianBlur
         id="feGaussianBlur3676-9"
         stdDeviation="0.45365853" />
    </filter>
    <linearGradient
       gradientTransform="translate(242.44643,493.58033)"
       x1="47"
       y1="76"
       x2="47"
       y2="33.086185"
       id="linearGradient3664-2"
       xlink:href="#linearGradient3658-2"
       gradientUnits="userSpaceOnUse" />
    <linearGradient
       id="linearGradient3658-2">
      <stop
         id="stop3660-8"
         style="stop-color:#000000;stop-opacity:1;"
         offset="0" />
      <stop
         id="stop3662-9"
         style="stop-color:#000000;stop-opacity:0.47058824;"
         offset="1" />
    </linearGradient>
    <clipPath
       id="clipPath3690-7">
      <path
         inkscape:connector-curvature="0"
         d="m 77.375,23.75 c -3.324,0 -6,2.676 -6,6 l 0,49.25 c 0,3.324 2.676,6 6,6 l 59.875,0 c 3.324,0 6,-2.676 6,-6 l 0,-49.25 c 0,-3.324 -2.676,-6 -6,-6 l -59.875,0 z m 30.625,9.53125 8.125,8.09375 0,-2.84375 5.34375,0 0,8.125 10.53125,10.625 -5.875,0 0,18.71875 -36.21875,0 0,-18.65625 -5.90625,0 24,-24.0625 z"
         id="path3692-3"
         style="opacity:0.35;fill:#ff00ff;stroke:none" />
    </clipPath>
    <filter
       color-interpolation-filters="sRGB"
       id="filter3694-6">
      <feGaussianBlur
         id="feGaussianBlur3696-1"
         stdDeviation="0.6804878" />
    </filter>
    <linearGradient
       inkscape:collect="always"
       xlink:href="#linearGradient3658-2"
       id="linearGradient3993"
       gradientUnits="userSpaceOnUse"
       gradientTransform="translate(242.44643,493.58033)"
       x1="47"
       y1="76"
       x2="47"
       y2="33.086185" />
  </defs>
  <sodipodi:namedview
     id="base"
     pagecolor="#ffffff"
     bordercolor="#666666"
     borderopacity="1.0"
     inkscape:pageopacity="0.0"
     inkscape:pageshadow="2"
     inkscape:zoom="5.6"
     inkscape:cx="299.43034"
     inkscape:cy="512.55258"
     inkscape:document-units="px"
     inkscape:current-layer="layer1"
     showgrid="false"
     inkscape:window-width="1278"
     inkscape:window-height="999"
     inkscape:window-x="1280"
     inkscape:window-y="0"
     inkscape:window-maximized="1" />
  <metadata
     id="metadata3142">
    <rdf:RDF>
      <cc:Work
         rdf:about="">
        <dc:format>image/svg+xml</dc:format>
        <dc:type
           rdf:resource="http://purl.org/dc/dcmitype/StillImage" />
        <dc:title></dc:title>
      </cc:Work>
    </rdf:RDF>
  </metadata>
  <g
     inkscape:label="Calque 1"
     inkscape:groupmode="layer"
     id="layer1">
    <g
       id="g3180">
      <path
         style="opacity:0.3;fill:none;stroke:#ffffff;stroke-width:1.5;stroke-miterlimit:4;stroke-dasharray:none;display:inline;filter:url(#filter3694)"
         id="path3678"
         clip-path="url(#clipPath3690)"
         transform="translate(180.57143,462.94232)"
         d="m 108,33.768293 -24,24.083623 5.920127,0 0,18.648084 36.200723,0 0,-18.731707 5.87915,0 -10.53659,-10.620209 0,-8.111499 -5.35191,0 0,2.843206 L 108,33.768293 z"
         inkscape:connector-curvature="0" />
      <path
         style="opacity:0.9;fill:url(#linearGradient3664);fill-opacity:1;stroke:none;display:inline"
         id="path3347"
         d="m 288.57143,496.21061 -24,24.08363 5.92013,0 0,18.64808 36.20072,0 0,-18.73171 5.87915,0 -10.53659,-10.6202 0,-8.1115 -5.35191,0 0,2.8432 -8.1115,-8.1115 z"
         inkscape:connector-curvature="0" />
      <path
         style="opacity:0.35;fill:none;stroke:#552200;display:inline;filter:url(#filter3674)"
         id="path3664"
         clip-path="url(#clipPath3668)"
         d="m 48,33.768293 -24,24.083623 5.920127,0 0,18.648084 36.200724,0 0,-18.731707 5.879149,0 -10.536585,-10.620209 0,-8.111499 -5.351916,0 0,2.843206 L 48,33.768293 z"
         inkscape:connector-curvature="0"
         transform="translate(240.57143,462.94232)" />
    </g>
    <g
       id="g3988"
       transform="translate(-14.285714,22.678571)"
       inkscape:export-filename="/scm/code/c/etwitt/data/theme/phone/images/home.png"
       inkscape:export-xdpi="98.376167"
       inkscape:export-ydpi="98.376167">
      <path
         style="opacity:0.3;fill:none;stroke:#ffffff;stroke-width:1.5;stroke-miterlimit:4;stroke-dasharray:none;display:inline;filter:url(#filter3694-6)"
         id="path3678-2"
         clip-path="url(#clipPath3690-7)"
         transform="translate(182.44643,493.08034)"
         d="m 108,33.768293 -24,24.083623 5.920127,0 0,18.648084 36.200723,0 0,-18.731707 5.87915,0 -10.53659,-10.620209 0,-8.111499 -5.35191,0 0,2.843206 L 108,33.768293 z"
         inkscape:connector-curvature="0" />
      <path
         style="opacity:0.9;fill:url(#linearGradient3993);fill-opacity:1;stroke:none;display:inline"
         id="path3347-9"
         d="m 290.44643,526.84863 -24,24.08362 5.92013,0 0,18.64808 36.20072,0 0,-18.7317 5.87915,0 -10.53659,-10.62021 0,-8.1115 -5.35191,0 0,2.8432 -8.1115,-8.11149 z"
         inkscape:connector-curvature="0" />
      <path
         style="opacity:0.35;fill:none;stroke:#ffffff;stroke-opacity:1;display:inline;filter:url(#filter3674-5)"
         id="path3664-3"
         clip-path="url(#clipPath3668-3)"
         d="m 48,33.768293 -24,24.083623 5.920127,0 0,18.648084 36.200724,0 0,-18.731707 5.879149,0 -10.536585,-10.620209 0,-8.111499 -5.351916,0 0,2.843206 L 48,33.768293 z"
         inkscape:connector-curvature="0"
         transform="translate(242.44643,493.58034)" />
    </g>
  </g>
</svg>
